<svg xmlns="http://www.w3.org/2000/svg" viewBox="0 0 32 32"><g data-name="Layer 1"><path fill="#bdeffc" d="M26.784,23.618a1.992,1.992,0,0,1,0,2.82l-2.83,2.83a5.981,5.981,0,0,1-8.48,0L2.744,16.538a5.981,5.981,0,0,1,0-8.48l2.83-2.83a1.992,1.992,0,0,1,2.82,0l4.25,4.24a2,2,0,0,1,0,2.83l-1.42,1.42a1.992,1.992,0,0,0,0,2.82l4.25,4.25a1.992,1.992,0,0,0,2.82,0l1.42-1.42a2,2,0,0,1,2.83,0Z"/><path fill="#9ddced" d="M25.7,22.526l-2.126,2.127a5.981,5.981,0,0,1-8.48,0L2.359,11.923A5.937,5.937,0,0,1,1.3,10.442a5.961,5.961,0,0,0,1.442,6.1l12.73,12.73a5.981,5.981,0,0,0,8.48,0l2.83-2.83a1.992,1.992,0,0,0,0-2.82Z"/><path d="M14.761 30.007a7.154 7.154 0 0 0 9.909 0L27.5 27.173a3.011 3.011 0 0 0 0-4.251L23.254 18.67a3 3 0 0 0-4.246 0l-1.416 1.418a1.006 1.006 0 0 1-1.416 0l-4.247-4.252a1 1 0 0 1 0-1.417L13.345 13a3.012 3.012 0 0 0 0-4.252L9.1 4.5a3.074 3.074 0 0 0-4.247 0L2.02 7.333a7.1 7.1 0 0 0 0 9.92zM3.435 8.75L6.267 5.916a1.023 1.023 0 0 1 1.415 0l4.247 4.251a1.013 1.013 0 0 1 0 1.418L10.514 13a3.011 3.011 0 0 0 0 4.251l4.247 4.252a3 3 0 0 0 4.246 0l1.416-1.418a1 1 0 0 1 1.416 0l4.247 4.252a1 1 0 0 1 0 1.417L23.255 28.59a5.049 5.049 0 0 1-7.079 0L3.435 15.836A5.063 5.063 0 0 1 3.435 8.75zM20.989 0a3.008 3.008 0 0 0-3 3.006 1 1 0 1 0 2 0 1 1 0 1 1 2 0c0 1.946-2.492 3.63-3.452 4.115a1 1 0 0 0 .449 1.9h4a1 1 0 0 0 0-2h-.94a5.739 5.739 0 0 0 1.941-4.008A3.008 3.008 0 0 0 20.989 0zM31 8.986a1 1 0 0 0 1-1V1a1 1 0 1 0-2 0V4.008H29a1 1 0 0 1-1-1V1a1 1 0 1 0-2 0v2a3.008 3.008 0 0 0 3 3.006h1V7.984A1 1 0 0 0 31 8.986z"/></g></svg>