<svg xmlns="http://www.w3.org/2000/svg" viewBox="0 0 32 32"><g data-name="Layer 2"><circle cx="26" cy="29" r="2" fill="#c3bec6"/><circle cx="13" cy="29" r="2" fill="#c3bec6"/><path fill="#bdeffc" d="M30.929,7.53l-1.47,5.21-.18.64a4.068,4.068,0,0,1-3.51,2.92l-14.16,1.53a2.631,2.631,0,0,0-1.8.97L7.629,5h21.31A2.018,2.018,0,0,1,30.929,7.53Z"/><path fill="#9ddced" d="M29.459,12.74l-.18.64a4.068,4.068,0,0,1-3.51,2.92l-14.16,1.53a2.631,2.631,0,0,0-1.8.97L7.629,5h7.01V6.74a6,6,0,0,0,6,6Z"/></g><g data-name="Layer 1"><path d="M0 1A1 1 0 0 0 1 2H5.291a1 1 0 0 1 .988.844L8.761 18.568a3.494 3.494 0 0 0-.257.5 3.529 3.529 0 0 0 .334 3.313A3.68 3.68 0 0 0 11.907 24H29a1 1 0 0 0 0-2H11.907a1.66 1.66 0 0 1-1.407-.736 1.6 1.6 0 0 1 1.22-2.441L25.874 17.3a5.059 5.059 0 0 0 4.373-3.647L31.889 7.8a2.934 2.934 0 0 0-.5-2.586A3.05 3.05 0 0 0 28.94 4H12.081a1 1 0 0 0 0 2H28.94a1.07 1.07 0 0 1 .861.418.946.946 0 0 1 .163.838L28.321 13.11a3.066 3.066 0 0 1-2.662 2.2L11.505 16.837a3.744 3.744 0 0 0-.957.234L8.255 2.535A2.987 2.987 0 0 0 5.291 0H1A1 1 0 0 0 0 1zM29 29a3 3 0 1 0-3 3A3 3 0 0 0 29 29zm-3 1a1 1 0 1 1 1-1A1 1 0 0 1 26 30zM16 29a3 3 0 1 0-3 3A3 3 0 0 0 16 29zm-4 0a1 1 0 1 1 1 1A1 1 0 0 1 12 29z"/><path d="M19,8a1,1,0,0,0-1,1v1H17a1,1,0,0,0,0,2h1v1a1,1,0,0,0,2,0V12h1a1,1,0,0,0,0-2H20V9A1,1,0,0,0,19,8Z"/></g></svg>