<svg xmlns="http://www.w3.org/2000/svg" viewBox="0 0 32 32"><g data-name="Layer 1"><circle cx="25.999" cy="29" r="2" fill="#c3bec6"/><circle cx="13" cy="29" r="2" fill="#c3bec6"/><path fill="#bdeffc" d="M30.927,7.53l-1.469,5.21-.18.64a4.068,4.068,0,0,1-3.51,2.92L11.609,17.83a2.631,2.631,0,0,0-1.8.97L7.629,5H28.938A2.017,2.017,0,0,1,30.927,7.53Z"/><path fill="#9ddced" d="M29.458,12.74l-.18.64a4.068,4.068,0,0,1-3.51,2.92L11.609,17.83a2.631,2.631,0,0,0-1.8.97L7.629,5h7.01V6.74a6,6,0,0,0,6,6Z"/><path d="M26 26a3 3 0 1 0 3 3A3 3 0 0 0 26 26zm0 4a1 1 0 1 1 1-1A1 1 0 0 1 26 30zM13 26a3 3 0 1 0 3 3A3 3 0 0 0 13 26zm0 4a1 1 0 1 1 1-1A1 1 0 0 1 13 30zM28.939 4H23a1 1 0 0 0 0 2h5.94a1.03 1.03 0 0 1 1.027 1.259l-1.65 5.853a3.052 3.052 0 0 1-2.655 2.194L11.509 16.838a3.718 3.718 0 0 0-.961.23L8.8 6H15a1 1 0 0 0 0-2H8.487L8.256 2.536A2.988 2.988 0 0 0 5.292 0H1A1 1 0 0 0 1 2H5.292a1 1 0 0 1 .988.845L8.76 18.563a3.455 3.455 0 0 0-.256.5 3.57 3.57 0 0 0-.263 1.346A3.634 3.634 0 0 0 11.91 24H29a1 1 0 0 0 0-2H11.91a1.591 1.591 0 0 1-.192-3.176L25.875 17.3a5.04 5.04 0 0 0 4.367-3.642L31.893 7.8A3.048 3.048 0 0 0 28.939 4z"/><path d="M19,0a1,1,0,0,0-1,1V9.589L16.707,8.3A1,1,0,0,0,15.293,9.71l3,3A1.046,1.046,0,0,0,19,13a1.026,1.026,0,0,0,.708-.294l3-3A1,1,0,0,0,21.293,8.3L20,9.589V1A1,1,0,0,0,19,0Z"/></g></svg>