<svg xmlns="http://www.w3.org/2000/svg" viewBox="0 0 32 32"><g data-name="Layer 1"><path fill="#ebeaf2" d="M29,5V31l-2.99-1.9L23,31l-3-2-3,2-3-2-3,2V5A4,4,0,0,0,7,1H25A4,4,0,0,1,29,5Z"/><path fill="#d8d0ef" d="M29,22v9l-2.99-1.9L23,31l-3-2-3,2-3-2-3,2V5A4,4,0,0,0,7,1h9V12A10,10,0,0,0,26,22Z"/><path fill="#ebeaf2" d="M11,5V15L7,12,3,15V5a4,4,0,0,1,8,0Z"/><rect width="2" height="5.182" x="26" y="7.814" fill="#fff" rx="1"/><circle cx="27" cy="5.997" r="1" fill="#fff"/><path d="M2.553,15.894A1,1,0,0,0,3.6,15.8L7,13.25l3,2.25V31a1.012,1.012,0,0,0,.534.869,1.036,1.036,0,0,0,1.021-.037L14,30.2l2.445,1.631a1,1,0,0,0,1.11,0L20,30.2l2.445,1.631a1,1,0,0,0,1.089.013L26,30.283l2.46,1.561a1.016,1.016,0,0,0,.953.058A1.029,1.029,0,0,0,30,31V5a5.006,5.006,0,0,0-5-5H7A5.006,5.006,0,0,0,2,5V15A1,1,0,0,0,2.553,15.894ZM28,5V29.181l-1.459-.925a1,1,0,0,0-1.07,0l-2.456,1.552-2.46-1.639a1,1,0,0,0-1.11,0L17,29.8l-2.445-1.63a1,1,0,0,0-1.11,0L12,29.131V5a4.948,4.948,0,0,0-1.026-3H25A3,3,0,0,1,28,5ZM4,5a3,3,0,0,1,6,0v8L7.6,11.2a1.029,1.029,0,0,0-1.2,0L4,13Z"/><path d="M15 20H25a1 1 0 0 0 0-2H15a1 1 0 0 0 0 2zM15 25h5a1 1 0 0 0 0-2H15a1 1 0 0 0 0 2zM19 12a1 1 0 0 0 0 2 1 1 0 0 0 2 0v-.278A1.993 1.993 0 0 0 22 12V11a2 2 0 0 0-2-2V8h1a1 1 0 0 0 0-2 1 1 0 0 0-2 0v.278A1.993 1.993 0 0 0 18 8V9a2 2 0 0 0 2 2v1z"/></g></svg>