<svg xmlns="http://www.w3.org/2000/svg" viewBox="0 0 32 32"><g data-name="Layer 2"><path fill="#d1945c" d="M27,1H5A4,4,0,0,0,1,5V27a4,4,0,0,0,4,4H27a4,4,0,0,0,4-4V5A4,4,0,0,0,27,1Z"/><path fill="#c9874b" d="M18,24A12,12,0,0,1,6,12V1H5A4,4,0,0,0,1,5V27a4,4,0,0,0,4,4H27a4,4,0,0,0,4-4V24Z"/><polygon fill="#bdeffc" points="21 1 21 13 16 9 11 13 11 1 21 1"/><polygon fill="#9ddced" points="14 1 11 1 11 13 14 10.6 14 1"/><rect width="2" height="7.182" x="28" y="10" fill="#ffc48f" rx="1"/><circle cx="29" cy="7" r="1" fill="#ffc48f"/><rect width="2" height="5" x="18" y="3" fill="#fff" rx="1"/></g><g data-name="Layer 1"><path d="M27,0H5A5.006,5.006,0,0,0,0,5V27a5.006,5.006,0,0,0,5,5H27a5.006,5.006,0,0,0,5-5V5A5.006,5.006,0,0,0,27,0ZM20,2v8.92l-3.375-2.7a1.028,1.028,0,0,0-1.25,0L12,10.923V2ZM30,27a3,3,0,0,1-3,3H5a3,3,0,0,1-3-3V5A3,3,0,0,1,5,2h5V13a1,1,0,0,0,1.625.781L16,10.284l4.375,3.5a1.02,1.02,0,0,0,1.059.121A1,1,0,0,0,22,13V2h5a3,3,0,0,1,3,3Z"/><path d="M12 21H6a1 1 0 0 0 0 2h6a1 1 0 0 0 0-2zM8 25H6a1 1 0 0 0 0 2H8a1 1 0 0 0 0-2z"/><circle cx="12" cy="26.003" r="1"/><circle cx="12" cy="26" r="1"/></g></svg>