<svg xmlns="http://www.w3.org/2000/svg" viewBox="0 0 32 32"><g data-name="Layer 2"><rect width="30" height="16" x="1" y="8" fill="#f46c80" rx="4"/><path fill="#ed5c71" d="M7,12V8H5a4,4,0,0,0-4,4v8a4,4,0,0,0,4,4H27a4,4,0,0,0,4-4H15A8,8,0,0,1,7,12Z"/></g><g data-name="Layer 1"><path d="M8 11H6a1 1 0 0 0-1 1v8a1 1 0 0 0 1 1H8a2.987 2.987 0 0 0 2.22-5A2.987 2.987 0 0 0 8 11zM7 13H8a1 1 0 0 1 0 2H7zm1 6H7V17H8a1 1 0 0 1 0 2zM18 11a1 1 0 0 0-1 1v6a1 1 0 0 1-2 0V12a1 1 0 0 0-2 0v6a3 3 0 0 0 6 0V12A1 1 0 0 0 18 11zM26.447 11.109a1 1 0 0 0-1.342.447L24 13.767 22.9 11.556a1 1 0 0 0-1.79.9L23 16.24V20a1 1 0 0 0 2 0V16.24L26.9 12.451A1 1 0 0 0 26.447 11.109z"/><path d="M27 7H5a5.006 5.006 0 0 0-5 5v8a5.006 5.006 0 0 0 5 5H27a5.006 5.006 0 0 0 5-5V12A5.006 5.006 0 0 0 27 7zm3 13a3 3 0 0 1-3 3H5a3 3 0 0 1-3-3V12A3 3 0 0 1 5 9H27a3 3 0 0 1 3 3zM16 5a1 1 0 0 0 1-1V1a1 1 0 0 0-2 0V4A1 1 0 0 0 16 5zM22.293 2.3l-1 1a1 1 0 0 0 0 1.414 1.029 1.029 0 0 0 1.414 0l1-1A1 1 0 0 0 22.293 2.3zM9.707 2.3A1 1 0 0 0 8.293 3.71l1 1a1.027 1.027 0 0 0 1.414 0 1 1 0 0 0 0-1.414zM17 31V28a1 1 0 0 0-2 0v3a1 1 0 0 0 2 0zM23 29.992a.989.989 0 0 0 .707-1.7l-1-1a1 1 0 0 0-1.414 1.414l1 1A1 1 0 0 0 23 29.992zM9.707 29.71l1-1A1 1 0 0 0 9.293 27.3l-1 1a1 1 0 0 0 0 1.414A1.013 1.013 0 0 0 9.707 29.71z"/></g></svg>