<svg xmlns="http://www.w3.org/2000/svg" viewBox="0 0 32 32"><g data-name="Layer 2"><rect width="22" height="30" x="5" y="1" fill="#ebeaf2" rx="4"/><path fill="#d8d0ef" d="M9,13V1A4,4,0,0,0,5,5V27a4,4,0,0,0,4,4H23a4,4,0,0,0,4-4V25H21A12,12,0,0,1,9,13Z"/><rect width="14" height="10" x="9" y="5" fill="#ffd170" rx="2"/><path fill="#ffb35c" d="M15,12a2.006,2.006,0,0,1-2-2V5H11A2.006,2.006,0,0,0,9,7v6a2.006,2.006,0,0,0,2,2H21a2.006,2.006,0,0,0,2-2V12Z"/></g><g data-name="Layer 1"><path d="M26,5a1,1,0,0,0,2,0,5.006,5.006,0,0,0-5-5H9A5.006,5.006,0,0,0,4,5V27a5.006,5.006,0,0,0,5,5H23a5.006,5.006,0,0,0,5-5V9a1,1,0,0,0-2,0V27a3,3,0,0,1-3,3H9a3,3,0,0,1-3-3V5A3,3,0,0,1,9,2H23A3,3,0,0,1,26,5Z"/><path d="M24,13V7a3,3,0,0,0-3-3H11A3,3,0,0,0,8,7v6a3,3,0,0,0,3,3H21A3,3,0,0,0,24,13Zm-2,0a1,1,0,0,1-1,1H11a1,1,0,0,1-1-1V7a1,1,0,0,1,1-1H21a1,1,0,0,1,1,1Z"/><circle cx="10" cy="19.003" r="1"/><circle cx="10" cy="23.003" r="1"/><circle cx="10" cy="27.003" r="1"/><circle cx="14" cy="19.003" r="1"/><circle cx="14" cy="23.003" r="1"/><circle cx="14" cy="27.003" r="1"/><circle cx="18" cy="19.003" r="1"/><circle cx="18" cy="23.003" r="1"/><circle cx="18" cy="27.003" r="1"/><circle cx="22" cy="19.003" r="1"/><circle cx="22" cy="23.003" r="1"/><circle cx="22" cy="27.003" r="1"/></g></svg>