<svg xmlns="http://www.w3.org/2000/svg" viewBox="0 0 32 32"><g data-name="Layer 2"><path fill="#ffd170" d="M31,27v2a2.006,2.006,0,0,1-2,2H3a2.006,2.006,0,0,1-2-2V27a2.006,2.006,0,0,1,2-2H29A2.006,2.006,0,0,1,31,27Z"/><path fill="#ffb35c" d="M5,27V25H3a2.006,2.006,0,0,0-2,2v2a2.006,2.006,0,0,0,2,2H29a2.006,2.006,0,0,0,2-2H7A2.006,2.006,0,0,1,5,27Z"/><path fill="#ffd170" d="M27.85,16.42l-.39-2.95A3.991,3.991,0,0,0,23.5,10H8.5a3.991,3.991,0,0,0-3.96,3.47L3,25H29Z"/><path fill="#ffb35c" d="M9.907,13.206,10.336,10H8.5a3.991,3.991,0,0,0-3.96,3.47L3,25H29l-.67-5H15.855A6,6,0,0,1,9.907,13.206Z"/><rect width="8" height="5" x="18" y="1" fill="#bdeffc" rx="2"/><path fill="#9ddced" d="M20,2V1a2.006,2.006,0,0,0-2,2V4a2.006,2.006,0,0,0,2,2h4a2.006,2.006,0,0,0,2-2H22A2.006,2.006,0,0,1,20,2Z"/><polygon fill="#ffd170" points="24 6 24 10 23.5 10 20 10 20 6 24 6"/><polygon fill="#bdeffc" points="15 10 15 15 9 15 9 10 9 7 12 9 15 7 15 10"/><polygon fill="#9ddced" points="12 9 9 7 9 10 9 15 12 15 12 10 12 9"/></g><g data-name="Layer 1"><path d="M29.9,24.155,28.451,13.344A4.987,4.987,0,0,0,25,9.253V6.819A3,3,0,0,0,27,4V3a3,3,0,0,0-3-3H20a3,3,0,0,0-3,3V4a3,3,0,0,0,2,2.816V9a1,1,0,0,0,0,2h4.5a3,3,0,0,1,2.969,2.6L27.857,24H4.143L5.531,13.6A3,3,0,0,1,8,11.05V14a1,1,0,0,0,0,2h8a1,1,0,0,0,0-2V7a1,1,0,0,0-1.555-.832L12,7.8,9.555,6.171A1,1,0,0,0,8,7V9.05a4.987,4.987,0,0,0-4.451,4.291L2.1,24.155A2.994,2.994,0,0,0,0,27v2a3,3,0,0,0,3,3H29a3,3,0,0,0,3-3V27A2.994,2.994,0,0,0,29.9,24.155ZM19,3a1,1,0,0,1,1-1h4a1,1,0,0,1,1,1V4a1,1,0,0,1-1,1H20a1,1,0,0,1-1-1Zm2,6V7h2V9ZM10,8.872l1.445.963a1,1,0,0,0,1.11,0L14,8.872V14H10ZM30,29a1,1,0,0,1-1,1H3a1,1,0,0,1-1-1V27a1,1,0,0,1,1-1H29a1,1,0,0,1,1,1Z"/><circle cx="20" cy="17.003" r="1"/><circle cx="24" cy="21.003" r="1"/><circle cx="24" cy="17.003" r="1"/><circle cx="20" cy="21.003" r="1"/><path d="M16,18H8a1,1,0,0,0,0,2h8a1,1,0,0,0,0-2Z"/></g></svg>