<svg xmlns="http://www.w3.org/2000/svg" viewBox="0 0 32 32"><g data-name="Layer 2"><path fill="#ebeaf2" d="M31,11V9a4,4,0,0,0-4-4H5A4,4,0,0,0,1,9v2A5,5,0,0,1,1,21v2a4,4,0,0,0,4,4H27a4,4,0,0,0,4-4V21a5,5,0,0,1,0-10ZM16,14a1,1,0,1,1,1-1A1,1,0,0,1,16,14Zm5,7a1,1,0,1,1,1-1A1,1,0,0,1,21,21Z"/><circle cx="21" cy="20" r="1"/><circle cx="16" cy="13" r="1"/><path fill="#d8d0ef" d="M10,5V27H5a4,4,0,0,1-4-4V21A5,5,0,0,0,1,11V9A4,4,0,0,1,5,5Z"/></g><g data-name="Layer 1"><path d="M5 28h5a1 1 0 0 0 1-1V24a1 1 0 0 0-2 0v2H5a3 3 0 0 1-3-3v-1.09A5.992 5.992 0 0 0 2 10.094V9A3 3 0 0 1 5 6H9V8a1 1 0 0 0 2 0V5a1 1 0 0 0-1-1H5A5.006 5.006 0 0 0 0 9v2a1 1 0 0 0 1 1 4 4 0 0 1 0 8 1 1 0 0 0-1 1v2A5.006 5.006 0 0 0 5 28zM27 4H14a1 1 0 0 0 0 2H27a3 3 0 0 1 3 3v1.091a5.992 5.992 0 0 0 0 11.819V23a3 3 0 0 1-3 3H14a1 1 0 0 0 0 2H27a5.006 5.006 0 0 0 5-5V21a1 1 0 0 0-1-1 4 4 0 0 1 0-8 1 1 0 0 0 1-1V9A5.006 5.006 0 0 0 27 4z"/><path d="M11 12a1 1 0 0 0-2 0v2a1 1 0 0 0 2 0zM10 17a1 1 0 0 0-1 1v2a1 1 0 0 0 2 0V18A1 1 0 0 0 10 17z"/><circle cx="16" cy="13.003" r="1"/><circle cx="21" cy="20.003" r="1"/><path d="M14.293,20.71a1.012,1.012,0,0,0,1.414,0l7-7A1,1,0,0,0,21.293,12.3l-7,7A1,1,0,0,0,14.293,20.71Z"/></g></svg>