<svg xmlns="http://www.w3.org/2000/svg" viewBox="0 0 32 32"><g data-name="Layer 2"><path fill="#bdeffc" d="M27,5H5A4,4,0,0,0,1,9V23a4,4,0,0,0,4,4H27a4,4,0,0,0,4-4V9A4,4,0,0,0,27,5Z"/><path fill="#9ddced" d="M17,22a8,8,0,0,1-8-8V5H5A4,4,0,0,0,1,9V23a4,4,0,0,0,4,4H27a4,4,0,0,0,4-4V22Z"/><rect width="30" height="4" x="1" y="9" fill="#655e66"/></g><g data-name="Layer 1"><path d="M5,28H27a5.006,5.006,0,0,0,5-5V9a5.006,5.006,0,0,0-5-5H5A5.006,5.006,0,0,0,0,9V23A5.006,5.006,0,0,0,5,28Zm22-2H5a3,3,0,0,1-3-3V14H30v9A3,3,0,0,1,27,26ZM5,6H27a3,3,0,0,1,3,3v3H2V10H27a1,1,0,0,0,0-2H2.184A3,3,0,0,1,5,6Z"/><path d="M9 17H6a1 1 0 0 0 0 2H9a1 1 0 0 0 0-2zM9 21H6a1 1 0 0 0 0 2H9a1 1 0 0 0 0-2z"/></g></svg>