<svg xmlns="http://www.w3.org/2000/svg" viewBox="0 0 32 32"><g data-name="Layer 2"><path fill="#c3bec6" d="M18,11.36A3.984,3.984,0,0,1,21,10v6a2.006,2.006,0,0,0,2,2h8v5a4,4,0,0,1-4,4H3a2.006,2.006,0,0,1-2-2V22a2.006,2.006,0,0,1,2-2H13a4,4,0,0,0,4-4V14A4,4,0,0,1,18,11.36Z"/><path fill="#bdeffc" d="M31,14v4H23a2.006,2.006,0,0,1-2-2V10h6A4,4,0,0,1,31,14Z"/><path fill="#9ddced" d="M27,15a4.012,4.012,0,0,1-4-4V10H21v6a2.006,2.006,0,0,0,2,2h8V15Z"/><path fill="#d1945c" d="M18,6v5.36A4,4,0,0,0,17,14v2a4,4,0,0,1-4,4H6a4,4,0,0,1-4-3.91V7A4,4,0,0,1,6,3h9A3,3,0,0,1,18,6Z"/><path fill="#c9874b" d="M16,15H11A6.018,6.018,0,0,1,5,9V3.141A3.989,3.989,0,0,0,2,7v9.09A3.911,3.911,0,0,0,5.91,20H13a4,4,0,0,0,4-4V14.859A3.977,3.977,0,0,1,16,15Z"/><rect width="6" height="5" x="7" y="3" fill="#bdeffc"/><rect width="2" height="5" x="7" y="3" fill="#9ddced"/><circle cx="21" cy="27" r="2" fill="#655e66"/><circle cx="7" cy="27" r="2" fill="#655e66"/><path fill="#ac9fb5" d="M3,20H15a0,0,0,0,1,0,0v0a3,3,0,0,1-3,3H1a0,0,0,0,1,0,0V22A2,2,0,0,1,3,20Z"/></g><g data-name="Layer 1"><path d="M27,9H21a5.006,5.006,0,0,0-5,5v2a3,3,0,0,1-3,3H6a3,3,0,0,1-3-3V7A3,3,0,0,1,6,4V8A1,1,0,0,0,7,9h6a1,1,0,0,0,1-1V4a2.983,2.983,0,0,1,2.98,2.6,1,1,0,0,0,2-.01.905.905,0,0,0,0-.1A4.993,4.993,0,0,0,14,2H6A5.006,5.006,0,0,0,1,7v9.113a4.977,4.977,0,0,0,1.125,3.033A2.993,2.993,0,0,0,0,22v3a3,3,0,0,0,3,3H4.184a3,3,0,1,0,0-2H3a1,1,0,0,1-1-1V22a1,1,0,0,1,1-1H13a5.006,5.006,0,0,0,5-5V14a3,3,0,0,1,2-2.815V16a3,3,0,0,0,3,3h7v4a3,3,0,0,1-3,3,1,1,0,0,0,0,2,5.006,5.006,0,0,0,5-5V14A5.006,5.006,0,0,0,27,9ZM12,7H8V4h4ZM7,26a1,1,0,1,1-1,1A1,1,0,0,1,7,26Zm16-9a1,1,0,0,1-1-1V11h5a3,3,0,0,1,3,3v3Z"/><path d="M24 27a3 3 0 1 0-3 3A3 3 0 0 0 24 27zm-4 0a1 1 0 1 1 1 1A1 1 0 0 1 20 27zM13 28h2a1 1 0 0 0 0-2H13a1 1 0 0 0 0 2z"/></g></svg>