<svg xmlns="http://www.w3.org/2000/svg" viewBox="0 0 32 32"><g data-name="Layer 2"><rect width="26" height="19" x="3" y="1" fill="#d1945c" rx="4"/><path fill="#c9874b" d="M29,14v2a4,4,0,0,1-4,4H7a4,4,0,0,1-4-4V5A4,4,0,0,1,7,1H9v9a4,4,0,0,0,4,4Z"/><path fill="#ffebd2" d="M20,19h3.59l4.37-4.47A1.83,1.83,0,0,1,29,14.02a1.8,1.8,0,0,1,1.54.51,1.755,1.755,0,0,1,.53,1.27,1.794,1.794,0,0,1-.53,1.28l-9,8.92H13l-.41.12a1.979,1.979,0,0,0-.54-.99L6.8,19.82l.48-.47C9,17.14,10.8,17.01,13.3,17H18a2.015,2.015,0,0,1,2,2Z"/><polygon fill="#bdeffc" points="20 1 20 10 16 7 12 10 12 1 20 1"/><polygon fill="#9ddced" points="15 1 12 1 12 10 15 7.75 15 1"/><path fill="#f46c80" d="M12.59,26.12a2.116,2.116,0,0,1-.54,1.99L9.83,30.38a2.012,2.012,0,0,1-2.91,0L1.6,24.95a2.15,2.15,0,0,1,0-2.98l1.67-1.7.53-.54a2.025,2.025,0,0,1,2.9-.01l.1.1,5.25,5.31A1.979,1.979,0,0,1,12.59,26.12Z"/><path fill="#ed5c71" d="M12.05,25.13l-.5-.508L9.83,26.378a2.013,2.013,0,0,1-2.91,0L2.1,21.459l-.5.511a2.15,2.15,0,0,0,0,2.98l5.32,5.43a2.012,2.012,0,0,0,2.91,0l2.22-2.27a2.116,2.116,0,0,0,.54-1.99A1.979,1.979,0,0,0,12.05,25.13Z"/><rect width="2" height="5" x="26" y="7" fill="#ffc48f" rx="1"/><rect width="2" height="4" x="17" y="2" fill="#fff" rx="1"/><circle cx="27" cy="5" r="1" fill="#ffc48f"/><rect width="2" height="3.914" x="5.737" y="20.659" fill="#f4adb7" rx="1" transform="rotate(-45 6.737 22.616)"/></g><g data-name="Layer 1"><path d="M27.2 13.827l-4.363 4.479a1 1 0 1 0 1.428 1.4l4.352-4.468a.825.825 0 0 1 1.16 0 .8.8 0 0 1 0 1.131l-8.69 8.646H13.169a3.113 3.113 0 0 0-.437-.576l-4.55-4.615c1.4-1.706 2.8-1.81 5.092-1.819h4.692a1 1 0 0 1 0 2 1 1 0 0 0 0 2 3 3 0 0 0 0-6.009h-4.7c-2.645.01-4.684.22-6.585 2.5a2.972 2.972 0 0 0-3.61.532L.883 21.285a3.155 3.155 0 0 0 0 4.378l5.309 5.445a3.069 3.069 0 0 0 4.33 0l2.222-2.278a3.1 3.1 0 0 0 .849-1.812h7.9a1 1 0 0 0 .7-.29l8.982-8.937a2.828 2.828 0 0 0 .15-3.814c-.048-.056-.1-.109-.15-.161A2.823 2.823 0 0 0 27.2 13.827zm-15.883 13.6L9.1 29.708a1.046 1.046 0 0 1-1.476 0L2.31 24.263a1.137 1.137 0 0 1 0-1.577L4.5 20.437a1.03 1.03 0 0 1 .735-.315h0a1.025 1.025 0 0 1 .734.311l5.338 5.415A1.135 1.135 0 0 1 11.316 27.429zM3 16a1 1 0 0 0 1-1V5A3 3 0 0 1 7 2h4v8a1.009 1.009 0 0 0 1.6.8L16 8.252 19.4 10.8A1.009 1.009 0 0 0 21 10V2h4a3 3 0 0 1 3 3v5a1 1 0 0 0 2 0V5a5.006 5.006 0 0 0-5-5H7A5.006 5.006 0 0 0 2 5V15A1 1 0 0 0 3 16zM19 2V8L16.6 6.2a1 1 0 0 0-1.2 0L13 8V2z"/><circle cx="13.973" cy="21.025" r=".999"/></g></svg>