<svg xmlns="http://www.w3.org/2000/svg" viewBox="0 0 32 32"><g data-name="Layer 2"><path fill="#ebeaf2" d="M27,10a4,4,0,0,1,4-4,5,5,0,0,0-5-5H5A4.012,4.012,0,0,0,1,5V6a4,4,0,0,1,0,8v1a4.012,4.012,0,0,0,4,4H26a5,5,0,0,0,5-5A4,4,0,0,1,27,10Z"/><path fill="#ac9fb5" d="M18.83,20l3.13,3.14a3.959,3.959,0,0,0-2.82,2.83L16,22.83Z"/><path fill="#d8d0ef" d="M9,1H5A4.012,4.012,0,0,0,1,5V6a4,4,0,0,1,0,8v1a4.012,4.012,0,0,0,4,4H26a5,5,0,0,0,5-5H17A8,8,0,0,1,9,6Z"/><path fill="#ac9fb5" d="M21.09,12.09a3.77,3.77,0,0,1,1.05,2.94,4.947,4.947,0,0,1-1.45,3.11l-.86.86-1,1L16,22.83l-3.14,3.14a3.959,3.959,0,0,0-2.82-2.83L14.18,19Z"/></g><g data-name="Layer 1"><path d="M5 20.006H9a1 1 0 0 0 0-2H5a3 3 0 0 1-3-3v-.1A5 5 0 0 0 2 5.1V5a3 3 0 0 1 3-3h7a1 1 0 0 0 0-2H5A5.008 5.008 0 0 0 0 5V6A1 1 0 0 0 1 7a3 3 0 0 1 0 6 1 1 0 0 0-1 1v1A5.008 5.008 0 0 0 5 20.006zM16 9a1 1 0 0 0 1-1V7a1 1 0 0 0-2 0V8A1 1 0 0 0 16 9z"/><path d="M11 5H8A1 1 0 0 0 8 7h3a1 1 0 0 0 0-2zM8 15h3a1 1 0 0 0 0-2H8a1 1 0 0 0 0 2zM11 9H10a1 1 0 0 0 0 2h1a1 1 0 0 0 0-2z"/><path d="M31,7a1,1,0,0,0,1-1A6.008,6.008,0,0,0,26-.009H16a1,1,0,0,0-1,1v2a1,1,0,1,0,2,0v-1h9a4.005,4.005,0,0,1,3.9,3.134,4.994,4.994,0,0,0,0,9.745A4,4,0,0,1,26,18.005H22.1A5.862,5.862,0,0,0,23.138,15.1,4.8,4.8,0,0,0,21.8,11.383a1,1,0,0,0-1.414,0L9.7,22.077a4.983,4.983,0,0,0-4.232,1.4,5,5,0,0,0,7.072,7.076A4.973,4.973,0,0,0,14,27.012a5.086,5.086,0,0,0-.067-.69L16,24.253l2.067,2.069a5.086,5.086,0,0,0-.067.69,4.973,4.973,0,0,0,1.464,3.538,5,5,0,1,0,7.072-7.076,4.98,4.98,0,0,0-4.231-1.4l-2.061-2.071H26a6.008,6.008,0,0,0,6-6,1,1,0,0,0-1-1,3,3,0,0,1,0-6ZM11.122,29.134a3,3,0,0,1-4.244,0,3,3,0,1,1,4.244-4.245A3.033,3.033,0,0,1,11.122,29.134Zm1.414-5.66a5.026,5.026,0,0,0-.775-.633l9.183-9.19a2.992,2.992,0,0,1,.2,1.308,3.984,3.984,0,0,1-1.16,2.478l-6.811,6.817A5.068,5.068,0,0,0,12.536,23.474Zm12.586,1.415a3.035,3.035,0,0,1,0,4.245,3,3,0,0,1-4.244,0,3,3,0,1,1,4.244-4.245ZM20.241,22.84a4.933,4.933,0,0,0-.777.634,5.068,5.068,0,0,0-.636.78l-1.414-1.416,1.415-1.416Z"/><circle cx="16" cy="12" r="1"/></g></svg>