<svg xmlns="http://www.w3.org/2000/svg" viewBox="0 0 32 32"><g data-name="Layer 2"><path fill="#bdeffc" d="M1,16v9a4,4,0,0,0,4,4H27a4,4,0,0,0,4-4V16Z"/><path fill="#ffd170" d="M27,3H5A4,4,0,0,0,1,7V18H31V7A4,4,0,0,0,27,3Z"/><path fill="#9ddced" d="M7,18H1v7a4,4,0,0,0,4,4H27a4,4,0,0,0,4-4V22H11A4,4,0,0,1,7,18Z"/><path fill="#ebeaf2" d="M15.39 13.61a2.07 2.07 0 0 1 0 2.93C13.93 18 11 18 11 18v-.02c0-.26.07-2.98 1.46-4.37A2.07 2.07 0 0 1 15.39 13.61zM15.39 19.46a2.072 2.072 0 0 1-2.93 2.93c-1.36-1.36-1.45-3.97-1.46-4.35V18S13.93 18 15.39 19.46zM11 18.01v.03c-.01.38-.1 2.99-1.46 4.35a2.072 2.072 0 0 1-2.93-2.93C8 18.07 10.72 18 10.98 18H11zM11 17.98V18h-.02c-.26 0-2.98-.07-4.37-1.46a2.072 2.072 0 0 1 2.93-2.93C10.93 15 11 17.72 11 17.98z"/><path fill="#ffb35c" d="M5,3A4,4,0,0,0,1,7V18H7V3Z"/></g><path d="M27,2H5A5.006,5.006,0,0,0,0,7V25a5.006,5.006,0,0,0,5,5H27a5.006,5.006,0,0,0,5-5V7A5.006,5.006,0,0,0,27,2ZM12.1,16.9a4.911,4.911,0,0,1,1.071-2.586,1.108,1.108,0,0,1,1.516,0,1.073,1.073,0,0,1,0,1.514A4.9,4.9,0,0,1,12.1,16.9Zm2.587,4.787a1.075,1.075,0,0,1-1.516,0A4.911,4.911,0,0,1,12.1,19.1a4.911,4.911,0,0,1,2.587,1.071A1.074,1.074,0,0,1,14.687,21.69ZM9.9,19.1A4.911,4.911,0,0,1,8.829,21.69a1.072,1.072,0,1,1-1.516-1.515A4.9,4.9,0,0,1,9.9,19.1ZM7.313,14.317a1.085,1.085,0,0,1,1.516,0A4.911,4.911,0,0,1,9.9,16.9a4.912,4.912,0,0,1-2.587-1.072A1.073,1.073,0,0,1,7.313,14.317ZM5,4h5v8.7A3.053,3.053,0,0,0,5.7,17H2V7A3,3,0,0,1,5,4ZM2,25V19H5.7A3.053,3.053,0,0,0,10,23.3V28H5A3,3,0,0,1,2,25Zm28,0a3,3,0,0,1-3,3H12V23.3A3.054,3.054,0,0,0,16.3,19H27a1,1,0,0,0,0-2H16.3A3.054,3.054,0,0,0,12,12.7V4H27a3,3,0,0,1,3,3Z" data-name="Layer 1"/></svg>