<svg xmlns="http://www.w3.org/2000/svg" viewBox="0 0 32 32"><g data-name="Layer 2"><path fill="#ffd170" d="M22,1h4a6,6,0,0,1-6,6H16A6,6,0,0,1,22,1Z"/><path fill="#ffb35c" d="M22.91,1A6,6,0,0,1,17,6h-.91A6,6,0,0,0,16,7h4a6,6,0,0,0,6-6Z"/><path fill="#ffd170" d="M16,7H12A6,6,0,0,1,6,1h4A6,6,0,0,1,16,7Z"/><path fill="#ffb35c" d="M9.09,1A6,6,0,0,0,15,6h.91A6,6,0,0,1,16,7H12A6,6,0,0,1,6,1Z"/><path fill="#bdeffc" d="M4,13V27a4,4,0,0,0,4,4H24a4,4,0,0,0,4-4V13Z"/><rect width="24" height="3" x="4" y="13" fill="#9ddced"/><path fill="#f46c80" d="M27,7H5a4,4,0,0,0-4,4v2H31V11A4,4,0,0,0,27,7Z"/><path fill="#ed5c71" d="M8,7H5a4,4,0,0,0-4,4v2H4V11A4,4,0,0,1,8,7Z"/><polygon fill="#ffd170" points="21 7 21 13 19 13 13 13 11 13 11 7 12 7 16 7 20 7 21 7"/><rect width="6" height="18" x="13" y="13" fill="#ffd170"/><rect width="6" height="3" x="13" y="13" fill="#ffb35c"/></g><path d="M27,6H24.89A6.975,6.975,0,0,0,27,1a1,1,0,0,0-1-1H22a7,7,0,0,0-6,3.413A7,7,0,0,0,10,0H6A1,1,0,0,0,5,1,6.975,6.975,0,0,0,7.11,6H5a5.006,5.006,0,0,0-5,5v2a1,1,0,0,0,1,1H3V27a5.006,5.006,0,0,0,5,5H24a5.006,5.006,0,0,0,5-5V17a1,1,0,0,0-2,0V27a3,3,0,0,1-3,3H20V14H31a1,1,0,0,0,1-1V11A5.006,5.006,0,0,0,27,6Zm-7,6H12V8h8ZM22,2h2.9A5.007,5.007,0,0,1,20,6H17.1A5.008,5.008,0,0,1,22,2ZM10,2a5.008,5.008,0,0,1,4.9,4H12A5.007,5.007,0,0,1,7.1,2ZM2,11A3,3,0,0,1,5,8h5v4H2ZM5,27V14h7V30H8A3,3,0,0,1,5,27Zm13,3H14V14h4ZM30,12H22V8h5a3,3,0,0,1,3,3Z" data-name="Layer 1"/></svg>