<svg xmlns="http://www.w3.org/2000/svg" viewBox="0 0 32 32"><g data-name="Layer 2"><path fill="#ac9fb5" d="M18 29v1a1 1 0 0 1-1 1H15a1 1 0 0 1-1-1V29a1 1 0 0 1 1-1h2A1 1 0 0 1 18 29zM28 16a1 1 0 0 0-1-1H25a1 1 0 0 0-1 1V26a1 1 0 0 0 1 1h2a1 1 0 0 0 1-1 3 3 0 0 0 3-3V19A3 3 0 0 0 28 16z"/><path fill="#bdeffc" d="M28,16h0a3,3,0,0,1,3,3v4a3,3,0,0,1-3,3h0a0,0,0,0,1,0,0V16A0,0,0,0,1,28,16Z"/><path fill="#ac9fb5" d="M4,16a1,1,0,0,1,1-1H7a1,1,0,0,1,1,1V26a1,1,0,0,1-1,1H5a1,1,0,0,1-1-1,3,3,0,0,1-3-3V19A3,3,0,0,1,4,16Z"/><path fill="#bdeffc" d="M1,16H1a3,3,0,0,1,3,3v4a3,3,0,0,1-3,3H1a0,0,0,0,1,0,0V16A0,0,0,0,1,1,16Z" transform="rotate(180 2.5 21)"/></g><path d="M28.764,15.077A2,2,0,0,0,27,14V11A11,11,0,0,0,5,11v3a2,2,0,0,0-1.764,1.077A4,4,0,0,0,0,19v4a4,4,0,0,0,3.236,3.923A2,2,0,0,0,5,28H7a2,2,0,0,0,2-2V16a2,2,0,0,0-2-2V11a9,9,0,0,1,18,0v3a2,2,0,0,0-2,2V26a2,2,0,0,0,2,2v1a1,1,0,0,1-1,1H19V29a2,2,0,0,0-2-2H15a2,2,0,0,0-2,2v1a2,2,0,0,0,2,2h9a3,3,0,0,0,3-3V28a2,2,0,0,0,1.764-1.077A4,4,0,0,0,32,23V19A4,4,0,0,0,28.764,15.077ZM7,26H5a1,1,0,0,0-1-1,2,2,0,0,1-2-2V19a1.993,1.993,0,0,1,1-1.722V22a1,1,0,0,0,2,0V16H7Zm9,4H15V29h2v1Zm14-7a2,2,0,0,1-2,2,1,1,0,0,0-1,1H25V16h2v6a1,1,0,0,0,2,0V17.278A1.993,1.993,0,0,1,30,19Z" data-name="Layer 1"/></svg>