<svg xmlns="http://www.w3.org/2000/svg" viewBox="0 0 32 32"><g data-name="Layer 1"><path fill="#ffd170" d="M21.68,8.1a3.932,3.932,0,0,1-.06,5.663L18.751,10.9l-2.8-2.931a3.946,3.946,0,0,1,5.669.05c0,.02.01.03.03.04S21.67,8.081,21.68,8.1Z"/><path fill="#c3bec6" d="M17.131,25.049a3.961,3.961,0,0,1-.07,5.673,1.045,1.045,0,0,1-1.45-.03l-5.63-5.633c.02-.02.04-.03.06-.05a35.718,35.718,0,0,1,3.33-2.311c.29-.18.6-.36.89-.52Z"/><path fill="#ac9fb5" d="M17.58,25.6a3.971,3.971,0,0,1-.811,1.13,1.045,1.045,0,0,1-1.45-.03l-3.192-3.194c-.7.472-1.4.965-2.086,1.5-.02.02-.04.03-.06.05l5.63,5.633a1.045,1.045,0,0,0,1.45.03A3.952,3.952,0,0,0,17.58,25.6Z"/><path fill="#bdeffc" d="M23.31,15.455c-3.036-3.038-6.045-6.1-9-9.215a1.98,1.98,0,0,0-3.35.83,35.006,35.006,0,0,1-7.32,13.137,2.076,2.076,0,0,0,.05,2.8c.854.9,1.726,1.781,2.6,2.662a2.076,2.076,0,0,0,2.8.12,35.064,35.064,0,0,1,13.3-7A1.989,1.989,0,0,0,23.31,15.455Z"/><path fill="#9ddced" d="M23.31,15.455c-.447-.448-.889-.9-1.336-1.35a2.12,2.12,0,0,1-1.566,1.843A37.121,37.121,0,0,0,6.323,23.365a2.188,2.188,0,0,1-1.824.47c.6.614,1.189,1.228,1.792,1.835a2.076,2.076,0,0,0,2.8.12,35.064,35.064,0,0,1,13.3-7A1.989,1.989,0,0,0,23.31,15.455Z"/><path fill="#ffd170" d="M6.8,16.055l6.57,6.643a35.718,35.718,0,0,0-3.33,2.311c-.323.252-.637.517-.95.781a2.076,2.076,0,0,1-2.8-.12c-.874-.881-1.746-1.762-2.6-2.662a2.076,2.076,0,0,1-.05-2.8A33.5,33.5,0,0,0,6.8,16.055Z"/><path fill="#ffb35c" d="M6.323,23.365a2.188,2.188,0,0,1-1.824.47c.6.614,1.189,1.228,1.792,1.835a2.076,2.076,0,0,0,2.8.12c.313-.264.627-.529.95-.781a35.528,35.528,0,0,1,3.33-2.311l-2.542-2.57A39.14,39.14,0,0,0,6.323,23.365Z"/><path d="M26.821 4.52a1 1 0 0 0-1.4-1.433L23.974 4.5a1 1 0 0 0-.018 1.415 1.013 1.013 0 0 0 1.414.018zM18.871 3.387a1 1 0 0 0 1-.978L19.9 1.023A1 1 0 0 0 18.924 0H18.9a1 1 0 0 0-1 .978l-.031 1.386a1 1 0 0 0 .977 1.023zM27.242 11.671l1.644.188a1 1 0 0 0 .228-1.987l-1.643-.188a.986.986 0 0 0-1.107.879A1 1 0 0 0 27.242 11.671zM24.991 17.538a2.954 2.954 0 0 0-.813-2.865l-1.05-1.025a4.937 4.937 0 0 0-.658-6.309 5.186 5.186 0 0 0-6.428-.614L14.958 5.666A3.05 3.05 0 0 0 12.034 4.9 3 3 0 0 0 9.891 6.951a31.523 31.523 0 0 1-2.867 6.672c-.349.612-.731 1.235-1.135 1.852a1.063 1.063 0 0 0 .137 1.265l4.293 4.194a1.014 1.014 0 0 0 1.414-.017 1 1 0 0 0-.017-1.415L7.994 15.866c.261-.419.531-.838.768-1.252a33.5 33.5 0 0 0 3.046-7.1 1.006 1.006 0 0 1 .728-.685 1.068 1.068 0 0 1 1.025.264l9.22 9.007a.958.958 0 0 1 .271.94.987.987 0 0 1-.715.715 36.155 36.155 0 0 0-13.6 7.373A1.076 1.076 0 0 1 7.289 25.1L4.3 22.173a.967.967 0 0 1-.043-1.348c.273-.3.532-.594.783-.9A1 1 0 1 0 3.5 18.653c-.227.276-.463.546-.714.82A2.963 2.963 0 0 0 2.9 23.605l2.993 2.922a3.179 3.179 0 0 0 4.161.116c.054-.047.113-.091.168-.138l5.049 4.934a2.089 2.089 0 0 0 2.848 0 4.954 4.954 0 0 0 0-7.1l-1.954-1.909a33.129 33.129 0 0 1 6.714-2.744A2.985 2.985 0 0 0 24.991 17.538zM21.074 8.771a2.94 2.94 0 0 1 .9 2.116 2.91 2.91 0 0 1-.325 1.316L17.537 8.187A3.165 3.165 0 0 1 21.074 8.771zm-4.352 17a2.941 2.941 0 0 1 .9 2.117 2.794 2.794 0 0 1-.949 2.117l-4.875-4.762c.828-.626 1.687-1.22 2.576-1.77z"/></g></svg>