<svg xmlns="http://www.w3.org/2000/svg" viewBox="0 0 32 32"><g data-name="Layer 2"><path fill="#ebeaf2" d="M23,25H5V5A4,4,0,0,1,9,1H19a4,4,0,0,1,4,4Z"/><path fill="#d8d0ef" d="M9,13V1A4,4,0,0,0,5,5V25H23V19H15A6,6,0,0,1,9,13Z"/><path fill="#bdeffc" d="M27,17a2.006,2.006,0,0,1-2,2H14V7H25a2.006,2.006,0,0,1,2,2Z"/><path fill="#9ddced" d="M14,15v4H25a2.006,2.006,0,0,0,2-2V15Z"/><path fill="#c3bec6" d="M14,25H5v2a4,4,0,0,0,4,4H19a4,4,0,0,0,4-4V25Z"/><path fill="#ac9fb5" d="M22,28H12a3.99,3.99,0,0,1-3.859-3H5v2a4,4,0,0,0,4,4H19a3.994,3.994,0,0,0,3.892-3.108A3.974,3.974,0,0,1,22,28Z"/></g><g data-name="Layer 1"><path d="M19,0H9A5.006,5.006,0,0,0,4,5V27a5.006,5.006,0,0,0,5,5H19a5.006,5.006,0,0,0,5-5V20h1a3,3,0,0,0,3-3V9a3,3,0,0,0-3-3H24V5A5.006,5.006,0,0,0,19,0Zm0,30H9a3,3,0,0,1-3-3V26H22v1A3,3,0,0,1,19,30Zm3-6H6V5A3,3,0,0,1,9,2H19a3,3,0,0,1,3,3V6H15V5a1,1,0,0,0-2,0V21a1,1,0,0,0,2,0V20h7ZM26,9v1H18a1,1,0,0,0,0,2h8v5a1,1,0,0,1-1,1H15V8H25A1,1,0,0,1,26,9Z"/><circle cx="14" cy="28.003" r="1.005"/></g></svg>