<svg xmlns="http://www.w3.org/2000/svg" viewBox="0 0 32 32"><g data-name="Layer 2"><path fill="#ebeaf2" d="M4,8V19a4,4,0,0,0,4,4H24a4,4,0,0,0,4-4V8Z"/><path fill="#d8d0ef" d="M25,17H13a4,4,0,0,1-4-4V8H4V19a4,4,0,0,0,4,4H24a4,4,0,0,0,4-4V17Z"/><path fill="#f46c80" d="M31,5V8a3,3,0,0,1-6,0V1h2A4,4,0,0,1,31,5Z"/><path fill="#c3bec6" d="M4,19H28a4,4,0,0,1-4,4H8A4,4,0,0,1,4,19Z"/><path fill="#ffd170" d="M25,1V8a3,3,0,0,1-6,0V1Z"/><path fill="#c3bec6" d="M23,29v2H9V29a2.006,2.006,0,0,1,2-2H21A2.006,2.006,0,0,1,23,29Z"/><rect width="8" height="4" x="12" y="23" fill="#655e66"/><path fill="#f46c80" d="M19,1V8a3,3,0,0,1-6,0V1Z"/><path fill="#ffd170" d="M13,1V8A3,3,0,0,1,7,8V1Z"/><path fill="#f46c80" d="M7,1V8A3,3,0,0,1,1,8V5A4,4,0,0,1,5,1Z"/></g><path d="M27,0H5A5.006,5.006,0,0,0,0,5V8a4,4,0,0,0,3,3.858V19a5.006,5.006,0,0,0,5,5h3v2a3,3,0,0,0-3,3v2a1,1,0,0,0,1,1H23a1,1,0,0,0,1-1V29a3,3,0,0,0-3-3V24h3a5.006,5.006,0,0,0,5-5V11.861A4,4,0,0,0,32,8V5A5.006,5.006,0,0,0,27,0ZM24,8a2,2,0,0,1-4,0V2h4ZM18,8a2,2,0,0,1-4,0V2h4ZM12,8A2,2,0,0,1,8,8V2h4ZM2,8V5A3,3,0,0,1,5,2H6V8A2,2,0,0,1,2,8ZM22,29v1H10V29a1,1,0,0,1,1-1H21A1,1,0,0,1,22,29Zm-3-3H13V24h6Zm5-4H8a3,3,0,0,1-3-3V11.861a3.976,3.976,0,0,0,2-1.24,3.947,3.947,0,0,0,6,0,3.947,3.947,0,0,0,6,0,3.947,3.947,0,0,0,6,0,3.976,3.976,0,0,0,2,1.24V18H8a1,1,0,0,0,0,2H26.816A3,3,0,0,1,24,22ZM30,8a2,2,0,0,1-4,0V2h1a3,3,0,0,1,3,3Z" data-name="Layer 1"/></svg>