<svg xmlns="http://www.w3.org/2000/svg" viewBox="0 0 32 32"><g data-name="Layer 2"><polygon fill="#ebeaf2" points="7 6 7 25 16 25 25 25 25 6 7 6"/><path fill="#d8d0ef" d="M20,20a8,8,0,0,1-8-8V6H7V25H25V20Z"/><path fill="#f46c80" d="M28,5V8a3,3,0,0,1-6,0,3,3,0,0,1-6,0,3,3,0,0,1-6,0A3,3,0,0,1,4,8V5A4,4,0,0,1,8,1H24A4,4,0,0,1,28,5Z"/><path fill="#c3bec6" d="M7,25v2a4,4,0,0,0,4,4H21a4,4,0,0,0,4-4V25Z"/><path fill="#ac9fb5" d="M24,28H14a3.989,3.989,0,0,1-3.859-3H7v2a4,4,0,0,0,4,4H21a3.994,3.994,0,0,0,3.892-3.108A3.974,3.974,0,0,1,24,28Z"/></g><g data-name="Layer 1"><circle cx="16" cy="28.003" r="1.005"/><path d="M24,0H8A5.006,5.006,0,0,0,3,5V8a4,4,0,0,0,3,3.858V27a5.006,5.006,0,0,0,5,5H21a5.006,5.006,0,0,0,5-5V15a1,1,0,0,0-2,0v9H8V11a1,1,0,0,0-1-1A2,2,0,0,1,5,8V5A3,3,0,0,1,8,2H24a3,3,0,0,1,3,3V8a2,2,0,0,1-4,0,1,1,0,0,0-2,0,2,2,0,0,1-4,0,1,1,0,0,0-2,0,2,2,0,0,1-4,0A1,1,0,0,0,9,8a3.983,3.983,0,0,0,7,2.618,3.947,3.947,0,0,0,6,0A3.983,3.983,0,0,0,29,8V5A5.006,5.006,0,0,0,24,0Zm0,26v1a3,3,0,0,1-3,3H11a3,3,0,0,1-3-3V26Z"/></g></svg>