<svg xmlns="http://www.w3.org/2000/svg" viewBox="0 0 32 32"><g data-name="Layer 2"><circle cx="25" cy="3.974" r="3" fill="#ffd170"/><path fill="#ffb35c" d="M27,5.013a3,3,0,0,1-3-3,2.964,2.964,0,0,1,.153-.9,2.989,2.989,0,1,0,3.693,3.764A2.96,2.96,0,0,1,27,5.013Z"/><ellipse cx="15" cy="9.008" fill="#ffd170" rx="4" ry="3.995"/><path fill="#ffb35c" d="M17,10.007a4,4,0,0,1-4-3.995,4.039,4.039,0,0,1,.047-.471,3.985,3.985,0,1,0,5.906,3.938A3.969,3.969,0,0,1,17,10.007Z"/><path fill="#ffebd2" d="M20,19h3.59l4.37-4.465a1.819,1.819,0,0,1,2.57,0,1.763,1.763,0,0,1,.54,1.269,1.8,1.8,0,0,1-.54,1.278l-9,8.91H13l-.42.12a1.972,1.972,0,0,0-.54-.989l-5.24-5.3.48-.469C9,17.141,10.8,17.011,13.3,17H18a2.015,2.015,0,0,1,2,2Z"/><path fill="#f46c80" d="M12.59,26.108a2.113,2.113,0,0,1-.54,1.988L9.83,30.363a2.013,2.013,0,0,1-2.91,0L1.6,24.94a2.146,2.146,0,0,1,0-2.977l1.67-1.7.53-.539a2.027,2.027,0,0,1,2.9-.01l.1.1,5.25,5.3A1.98,1.98,0,0,1,12.59,26.108Z"/><path fill="#ed5c71" d="M12.05,25.119l-.5-.508L9.83,26.365a2.013,2.013,0,0,1-2.91,0L2.1,21.453l-.5.51a2.146,2.146,0,0,0,0,2.977l5.32,5.423a2.013,2.013,0,0,0,2.91,0L12.05,28.1a2.113,2.113,0,0,0,.54-1.988A1.98,1.98,0,0,0,12.05,25.119Z"/><path fill="#f4adb7" d="M8.121,23.991h0a1,1,0,0,1-1.414,0L5.354,22.639a1,1,0,0,1,0-1.413h0a1,1,0,0,1,1.414,0l1.353,1.352A1,1,0,0,1,8.121,23.991Z"/></g><g data-name="Layer 1"><path d="M27.21,13.826,22.845,18.3a1,1,0,0,0,1.429,1.4l4.353-4.461a.826.826,0,0,1,1.161,0,.8.8,0,0,1,0,1.129L21.1,25H13.174a3.074,3.074,0,0,0-.437-.575L8.184,19.813c1.4-1.7,2.8-1.808,5.1-1.816h4.69a1,1,0,0,1,0,2,1,1,0,0,0,0,2,3,3,0,0,0,0-6h-4.7c-2.646.011-4.686.22-6.588,2.5a2.975,2.975,0,0,0-3.611.531L.883,21.271a3.146,3.146,0,0,0,0,4.37l5.311,5.435a3.051,3.051,0,0,0,4.333,0L12.749,28.8A3.1,3.1,0,0,0,13.6,27h7.908a1,1,0,0,0,.7-.29L31.2,17.784a2.808,2.808,0,1,0-3.985-3.958ZM11.321,27.405,9.1,29.678a1.046,1.046,0,0,1-1.477,0L2.311,24.243a1.133,1.133,0,0,1,0-1.574L4.5,20.425a1.037,1.037,0,0,1,1.473,0l5.34,5.405A1.133,1.133,0,0,1,11.321,27.405Z"/><circle cx="14" cy="20.997" r=".999"/><path d="M15 4.017a4.995 4.995 0 1 0 5 4.994A5 5 0 0 0 15 4.017zm0 7.991a3 3 0 1 1 3-3A3 3 0 0 1 15 12.008zM25-.021a4 4 0 1 0 4 4A4 4 0 0 0 25-.021zm0 5.993a2 2 0 1 1 2-2A2 2 0 0 1 25 5.972z"/></g></svg>