<svg xmlns="http://www.w3.org/2000/svg" viewBox="0 0 32 32"><g data-name="Layer 2"><rect width="20" height="12" x="6" y="1" fill="#49e298" rx="4"/><path fill="#ffebd2" d="M20,19h3.59l4.37-4.47a1.817,1.817,0,0,1,2.57,0,1.765,1.765,0,0,1,.54,1.27,1.8,1.8,0,0,1-.54,1.28l-9,8.92H13l-.42.12a1.979,1.979,0,0,0-.54-.99L6.8,19.82l.48-.47C9,17.14,10.8,17.01,13.3,17H18a2.015,2.015,0,0,1,2,2Z"/><path fill="#2abf68" d="M26 8V9a4 4 0 0 1-4 4H21A5 5 0 0 1 26 8zM26 5V6a5 5 0 0 1-5-5h1A4 4 0 0 1 26 5z"/><circle cx="16" cy="7" r="2" fill="#2abf68"/><path fill="#2abf68" d="M10 1h1A5 5 0 0 1 6 6V5A4 4 0 0 1 10 1zM11 13H10A4 4 0 0 1 6 9V8A5 5 0 0 1 11 13z"/><path fill="#f46c80" d="M12.59,26.117a2.118,2.118,0,0,1-.54,1.991L9.83,30.377a2.012,2.012,0,0,1-2.91,0L1.6,24.947a2.15,2.15,0,0,1,0-2.98l1.67-1.7.53-.54a2.025,2.025,0,0,1,2.9-.01l.1.1,5.25,5.309A1.979,1.979,0,0,1,12.59,26.117Z"/><path fill="#ed5c71" d="M12.05,25.128l-.5-.509L9.83,26.375a2.012,2.012,0,0,1-2.91,0L2.1,21.457l-.5.51a2.151,2.151,0,0,0,0,2.981l5.32,5.43a2.013,2.013,0,0,0,2.91,0l2.22-2.271a2.116,2.116,0,0,0,.54-1.99A1.972,1.972,0,0,0,12.05,25.128Z"/><rect width="2" height="3.914" x="5.737" y="20.657" fill="#f4adb7" rx="1" transform="rotate(-45 6.737 22.614)"/></g><g data-name="Layer 1"><path d="M6.192,31.085a3.015,3.015,0,0,0,4.331,0l2.221-2.276A3.094,3.094,0,0,0,13.593,27h7.9a1,1,0,0,0,.7-.29l8.983-8.925a2.808,2.808,0,1,0-3.983-3.96L22.837,18.3a1,1,0,1,0,1.427,1.4l4.352-4.462a.826.826,0,0,1,1.161,0,.8.8,0,0,1,0,1.129L21.086,25H13.17a3.044,3.044,0,0,0-.438-.576l-4.55-4.609c1.4-1.7,2.8-1.809,5.092-1.817h4.692a1,1,0,0,1,0,2,1,1,0,0,0,0,2,3,3,0,0,0,0-6h-4.7c-2.645.01-4.684.22-6.584,2.5a2.971,2.971,0,0,0-3.611.531L.883,21.273a3.151,3.151,0,0,0,0,4.374ZM2.311,22.673,4.5,20.427a1.026,1.026,0,0,1,.736-.315h0a1.023,1.023,0,0,1,.733.311l5.339,5.408a1.133,1.133,0,0,1,0,1.579L9.1,29.686a1.05,1.05,0,0,1-1.477,0L2.311,24.248A1.132,1.132,0,0,1,2.311,22.673Z"/><circle cx="13.997" cy="21.004" r="1"/><path d="M16,4a3,3,0,0,0-3,3,1,1,0,0,0,2,0,1,1,0,1,1,1,1,1,1,0,0,0,0,2,3,3,0,0,0,0-6Z"/><path d="M10,0A5.006,5.006,0,0,0,5,5V9a5.006,5.006,0,0,0,5,5H22a5.006,5.006,0,0,0,5-5V5a5.006,5.006,0,0,0-5-5ZM25,7.093A6.006,6.006,0,0,0,20.09,12H11.91A6.006,6.006,0,0,0,7,7.093V6.912A6.007,6.007,0,0,0,11.91,2h8.18A6.007,6.007,0,0,0,25,6.912ZM9.853,2.017A3.994,3.994,0,0,1,7.015,4.856,2.989,2.989,0,0,1,9.853,2.017ZM7.015,9.149a3.991,3.991,0,0,1,2.838,2.839A2.989,2.989,0,0,1,7.015,9.149Zm15.132,2.839a3.991,3.991,0,0,1,2.838-2.839A2.989,2.989,0,0,1,22.147,11.988Zm2.838-7.132a3.994,3.994,0,0,1-2.838-2.839A2.989,2.989,0,0,1,24.985,4.856Z"/></g></svg>