<svg xmlns="http://www.w3.org/2000/svg" viewBox="0 0 32 32"><g data-name="Layer 1"><path fill="#ffd170" d="M24.5,6.89,18.5,1.9a3.9,3.9,0,0,0-5,0L7.5,6.89A4.211,4.211,0,0,0,6,10.131v16.7A4.08,4.08,0,0,0,10,31H22a4.08,4.08,0,0,0,4-4.161v-16.7A4.211,4.211,0,0,0,24.5,6.89ZM16,9.991a2,2,0,1,1,2-2A2,2,0,0,1,16,9.991Z"/><path fill="#ffb35c" d="M6.02,27.257c-.013-.139-.02-.279-.02-.422v-16.7A4.211,4.211,0,0,1,7.5,6.89L10,4.81v7.181A12,12,0,0,0,22,24h4v2.84A4.08,4.08,0,0,1,22,31H10A4.061,4.061,0,0,1,6.02,27.257Z"/><path fill="#bdeffc" d="M13,14.992h6a2,2,0,0,1,2,2v7a2,2,0,0,1-2,2H13a2,2,0,0,1-2-2v-7A2,2,0,0,1,13,14.992Z"/><path d="M5,10.136V26.843A5.086,5.086,0,0,0,10,32H22a5.086,5.086,0,0,0,5-5.157V10.136a5.194,5.194,0,0,0-1.862-4.014l-6-4.989a4.911,4.911,0,0,0-6.276,0l-6,4.988A5.2,5.2,0,0,0,5,10.136Zm2,0A3.2,3.2,0,0,1,8.14,7.66l6-4.988a2.971,2.971,0,0,1,3.72,0l6,4.99A3.2,3.2,0,0,1,25,10.136V26.843A3.084,3.084,0,0,1,22,30H10a3.084,3.084,0,0,1-3-3.156Z"/><path d="M14 8.994a1 1 0 0 0 1-1 1 1 0 1 1 1 1 1 1 0 0 0 0 2 3 3 0 1 0-3-3A1 1 0 0 0 14 8.994zM13 27h6a3 3 0 0 0 3-3V17a3 3 0 0 0-3-3H13a3 3 0 0 0-3 3v7A3 3 0 0 0 13 27zM12 17a1 1 0 0 1 1-1h6a1 1 0 0 1 1 1v7a1 1 0 0 1-1 1H13a1 1 0 0 1-1-1z"/></g></svg>