<svg xmlns="http://www.w3.org/2000/svg" viewBox="0 0 32 32"><g data-name="Layer 2"><path fill="#bdeffc" d="M30.93,7.53l-1.47,5.21-.18.64a4.068,4.068,0,0,1-3.51,2.92L11.61,17.83a2.631,2.631,0,0,0-1.8.97L7.63,5H28.94A2.018,2.018,0,0,1,30.93,7.53Z"/><path fill="#9ddced" d="M29.46,12.74l-.18.64a4.068,4.068,0,0,1-3.51,2.92L11.61,17.83a2.631,2.631,0,0,0-1.8.97L7.63,5h7.01V6.74a6,6,0,0,0,6,6Z"/><circle cx="13" cy="29" r="2" fill="#c3bec6"/><circle cx="26" cy="29" r="2" fill="#c3bec6"/></g><path d="M1 2H5.291a1 1 0 0 1 .988.844L8.76 18.567a3.669 3.669 0 0 0-.257.5 3.531 3.531 0 0 0 .335 3.314A3.681 3.681 0 0 0 11.907 24H29a1 1 0 0 0 0-2H11.907a1.62 1.62 0 0 1-1.554-2.176 1.655 1.655 0 0 1 1.366-1L25.874 17.3a5.058 5.058 0 0 0 4.373-3.648L31.889 7.8A2.939 2.939 0 0 0 31.4 5.213 3.052 3.052 0 0 0 28.94 4H12.081a1 1 0 0 0 0 2H28.94A1.038 1.038 0 0 1 29.963 7.26l-1.642 5.85a3.066 3.066 0 0 1-2.661 2.2L11.505 16.838a3.725 3.725 0 0 0-.956.233L8.254 2.535A2.986 2.986 0 0 0 5.291 0H1A1 1 0 0 0 1 2zM29 29a3 3 0 1 0-3 3A3 3 0 0 0 29 29zm-4 0a1 1 0 1 1 1 1A1 1 0 0 1 25 29zM16 29a3 3 0 1 0-3 3A3 3 0 0 0 16 29zm-4 0a1 1 0 1 1 1 1A1 1 0 0 1 12 29z" data-name="Layer 1"/></svg>