<svg xmlns="http://www.w3.org/2000/svg" viewBox="0 0 32 32"><g data-name="Layer 2"><path fill="#f46c80" d="M27.46,2.37A2.009,2.009,0,0,0,25.56,1H6.44a2.009,2.009,0,0,0-1.9,1.37L2,10v3.5A3.623,3.623,0,0,0,5.5,17,3.5,3.5,0,0,0,9,13.5,3.517,3.517,0,0,0,12.5,17,3.5,3.5,0,0,0,16,13.5,3.517,3.517,0,0,0,19.5,17,3.5,3.5,0,0,0,23,13.5,3.5,3.5,0,0,0,26.5,17a3.586,3.586,0,0,0,2.47-1.03A3.46,3.46,0,0,0,30,13.5V10Z"/><path fill="#bdeffc" d="M28,11V27a4,4,0,0,1-4,4H8a4,4,0,0,1-4-4V11Z"/><path fill="#9ddced" d="M9,21V11H4V27a4,4,0,0,0,4,4H24a4,4,0,0,0,4-4H15A6,6,0,0,1,9,21Z"/><path fill="#ed5c71" d="M30,13v.5a3.46,3.46,0,0,1-1.03,2.47A3.624,3.624,0,0,1,26.5,17,3.5,3.5,0,0,1,23,13.5,3.5,3.5,0,0,1,19.5,17,3.517,3.517,0,0,1,16,13.5,3.5,3.5,0,0,1,12.5,17,3.517,3.517,0,0,1,9,13.5,3.5,3.5,0,0,1,5.5,17,3.555,3.555,0,0,1,2,13.5V10H30Z"/><rect width="6" height="4" x="18" y="21" fill="#9ddced"/><rect width="6" height="10" x="8" y="21" fill="#9ddced"/></g><g data-name="Layer 1"><path d="M5,10a1,1,0,0,0,1,1H30a1,1,0,0,0,.948-1.316L28.4,2.055A2.994,2.994,0,0,0,25.559,0H6.441A2.994,2.994,0,0,0,3.6,2.055L1.052,9.687A1,1,0,0,0,1,10v3.5a4.5,4.5,0,0,0,2,3.738V27a5.006,5.006,0,0,0,5,5H24a5.006,5.006,0,0,0,5-5V17.241A4.5,4.5,0,0,0,31,13.5a1,1,0,0,0-2,0,2.5,2.5,0,0,1-5,0,1,1,0,0,0-2,0,2.5,2.5,0,0,1-5,0,1,1,0,0,0-2,0,2.5,2.5,0,0,1-5,0,1,1,0,0,0-2,0,2.5,2.5,0,0,1-5,0V10.165L5.492,2.687A1,1,0,0,1,6.441,2H25.559a1,1,0,0,1,.949.684L28.612,9H6A1,1,0,0,0,5,10Zm8,20H9V22h4ZM9,16.3a4.443,4.443,0,0,0,7,0,4.443,4.443,0,0,0,7,0A4.476,4.476,0,0,0,26.5,18a4.576,4.576,0,0,0,.5-.05V27a3,3,0,0,1-3,3H15V21a1,1,0,0,0-1-1H8a1,1,0,0,0-1,1v8.816A3,3,0,0,1,5,27v-9.05a4.576,4.576,0,0,0,.5.05A4.476,4.476,0,0,0,9,16.3Z"/><path d="M18,26h6a1,1,0,0,0,1-1V21a1,1,0,0,0-1-1H18a1,1,0,0,0-1,1v4A1,1,0,0,0,18,26Zm1-4h4v2H19Z"/></g></svg>