<svg xmlns="http://www.w3.org/2000/svg" viewBox="0 0 32 32"><g data-name="Layer 2"><path fill="#ffd170" d="M25.47,31H6.53a4.576,4.576,0,0,1-4.48-5.28L4.38,9.96A2.277,2.277,0,0,1,6.62,8H25.38a2.277,2.277,0,0,1,2.24,1.96l2.1,14.23.23,1.53A4.576,4.576,0,0,1,25.47,31Z"/><path fill="#fff370" d="M27.169,20.594h0a1,1,0,0,1-1.139-.838l-.8-5.383a1,1,0,0,1,.838-1.139h0a1,1,0,0,1,1.139.838l.8,5.383A1,1,0,0,1,27.169,20.594Z"/><circle cx="25.788" cy="11.252" r="1" fill="#fff370"/><path fill="#ffb35c" d="M25.47,31H6.53a4.576,4.576,0,0,1-4.48-5.28L4.38,9.96A2.277,2.277,0,0,1,6.62,8H8.45v4.19a12,12,0,0,0,12,12h9.27l.23,1.53A4.576,4.576,0,0,1,25.47,31Z"/></g><g data-name="Layer 1"><path d="M29.633,30.088a5.638,5.638,0,0,0,1.306-4.513L28.61,9.816A3.3,3.3,0,0,0,25.379,7H23A7,7,0,0,0,9,7H6.621A3.3,3.3,0,0,0,3.39,9.816L1.061,25.575a5.638,5.638,0,0,0,1.306,4.513A5.5,5.5,0,0,0,6.533,32H25.467A5.5,5.5,0,0,0,29.633,30.088ZM16,2a5.006,5.006,0,0,1,5,5H11A5.006,5.006,0,0,1,16,2ZM3.881,28.781a3.637,3.637,0,0,1-.841-2.914L5.369,10.109A1.269,1.269,0,0,1,6.621,9H9v2a1,1,0,0,0,2,0V9H21v2a1,1,0,0,0,2,0V9h2.379a1.269,1.269,0,0,1,1.252,1.105L28.96,25.867a3.637,3.637,0,0,1-.841,2.914A3.5,3.5,0,0,1,25.467,30H6.533A3.5,3.5,0,0,1,3.881,28.781Z"/><path d="M15 17a3 3 0 1 0-3 3A3 3 0 0 0 15 17zm-4 0a1 1 0 1 1 1 1A1 1 0 0 1 11 17zM20 22a3 3 0 1 0 3 3A3 3 0 0 0 20 22zm0 4a1 1 0 1 1 1-1A1 1 0 0 1 20 26zM21.707 15.3a1 1 0 0 0-1.414 0l-10 10a1 1 0 0 0 0 1.414 1.013 1.013 0 0 0 1.414 0l10-10A1 1 0 0 0 21.707 15.3z"/></g></svg>