<svg xmlns="http://www.w3.org/2000/svg" viewBox="0 0 32 32"><g data-name="Layer 1"><path fill="#bdeffc" d="M29,11H3a2.006,2.006,0,0,0-2,2v2a2.006,2.006,0,0,0,2,2H4L5.51,27.57A4,4,0,0,0,9.47,31H22.53a4,4,0,0,0,3.96-3.43L28,17h1a2.006,2.006,0,0,0,2-2V13A2.006,2.006,0,0,0,29,11Z"/><path fill="#9ddced" d="M26.53,25H13.47a4,4,0,0,1-3.96-3.43L8,11H3a2.006,2.006,0,0,0-2,2v2a2.006,2.006,0,0,0,2,2H4L5.51,27.57A4,4,0,0,0,9.47,31H22.53a4,4,0,0,0,3.96-3.43l.371-2.6C26.751,24.979,26.643,25,26.53,25Z"/><path fill="#ffd170" d="M31,13v2a2.006,2.006,0,0,1-2,2H3a2.006,2.006,0,0,1-2-2V13a2.006,2.006,0,0,1,2-2H29A2.006,2.006,0,0,1,31,13Z"/><path fill="#ffb35c" d="M11,14H10a2.006,2.006,0,0,1-2-2V11H3a2.006,2.006,0,0,0-2,2v2a2.006,2.006,0,0,0,2,2H29a2.006,2.006,0,0,0,2-2V14Z"/><path fill="#ebeaf2" d="M24.61 1a1.96 1.96 0 0 1 1.92 2.35L25 11H21l1.68-8.42A1.97 1.97 0 0 1 24.61 1zM9.32 2.58L11 11H7L5.47 3.35a1.963 1.963 0 1 1 3.85-.77z"/><path d="M29,10H26.22l1.292-6.459A2.961,2.961,0,0,0,21.7,2.383L20.18,10H11.82L10.3,2.383A2.962,2.962,0,0,0,4.488,3.545L5.78,10H3a3,3,0,0,0-3,3v2a3,3,0,0,0,3,3h.132L4.52,27.714A5.02,5.02,0,0,0,9.47,32H22.53a5.02,5.02,0,0,0,4.95-4.289L28.867,18H29a3,3,0,0,0,3-3V13A3,3,0,0,0,29,10ZM23.665,2.776a.962.962,0,0,1,1.886.377L24.181,10H22.22ZM6.449,3.153a.962.962,0,0,1,1.886-.377L9.78,10H7.819ZM30,15a1,1,0,0,1-1,1H28a1.04,1.04,0,0,0-.989.857L25.5,27.433A3.01,3.01,0,0,1,22.53,30H9.47A3.01,3.01,0,0,1,6.5,27.432L5.153,18H24a1,1,0,0,0,0-2H3a1,1,0,0,1-1-1V13a1,1,0,0,1,1-1H29a1,1,0,0,1,1,1Z"/><path d="M16 20a1 1 0 0 0-1 1v6a1 1 0 0 0 2 0V21A1 1 0 0 0 16 20zM11 20a1 1 0 0 0-1 1v6a1 1 0 0 0 2 0V21A1 1 0 0 0 11 20zM21 20a1 1 0 0 0-1 1v6a1 1 0 0 0 2 0V21A1 1 0 0 0 21 20z"/></g></svg>