<svg xmlns="http://www.w3.org/2000/svg" viewBox="0 0 32 32"><g data-name="Layer 2"><circle cx="29" cy="29" r="2" fill="#655e66"/><path fill="#c3bec6" d="M29,25v2H13l-.1-.01A4.619,4.619,0,0,0,13,26a4.941,4.941,0,0,0-1-3H27A2.006,2.006,0,0,1,29,25Z"/><path fill="#ac9fb5" d="M27,23H12a4.911,4.911,0,0,1,.89,2H25a2.006,2.006,0,0,1,2,2h2V25A2.006,2.006,0,0,0,27,23Z"/><path fill="#d1945c" d="M26,8H18a4,4,0,0,0-4,4v7a4,4,0,0,0,4,4h8a4,4,0,0,0,4-4V12A4,4,0,0,0,26,8Z"/><path fill="#c9874b" d="M29,19H21a4,4,0,0,1-4-4V8.141A3.989,3.989,0,0,0,14,12v7a4,4,0,0,0,4,4h8a4,4,0,0,0,4-4v-.141A3.977,3.977,0,0,1,29,19Z"/><polygon fill="#bdeffc" points="25 8 25 14 22 12 19 14 19 8 25 8"/><polygon fill="#9ddced" points="21 8 19 8 19 14 21 12.667 21 8"/><path fill="#655e66" d="M12,23a5.016,5.016,0,0,0-6.04-1.57,5,5,0,1,0,6.94,5.56A4.619,4.619,0,0,0,13,26,4.941,4.941,0,0,0,12,23Z"/><path fill="#5f5261" d="M11,29a4.987,4.987,0,0,1-4.073-7.883,5.255,5.255,0,0,0-.967.313,5,5,0,1,0,6.111,7.442A4.981,4.981,0,0,1,11,29Z"/><path fill="#9566d1" d="M10,4.72V21.41a5.068,5.068,0,0,0-4.04.02l-.01-.02V6.9L1.9,4.72a2.041,2.041,0,0,1-.26-3.18A2.02,2.02,0,0,1,3.02,1a1.99,1.99,0,0,1,1.12.34Z"/><path fill="#c3bec6" d="M10,4.72V21.41a5.068,5.068,0,0,0-4.04.02l-.01-.02V6.9L1.9,4.72a2.03,2.03,0,0,1-.63-2.7,2.06,2.06,0,0,1,.37-.48A2.02,2.02,0,0,1,3.02,1a1.99,1.99,0,0,1,1.12.34Z"/><path fill="#ac9fb5" d="M8,5.72V21a5.1,5.1,0,0,0-2.04.43l-.01-.02V6.9L1.9,4.72a2.03,2.03,0,0,1-.63-2.7,1.882,1.882,0,0,1,.87.32Z"/><rect width="2" height="5" x="27" y="12" fill="#ffc48f" rx="1"/></g><g data-name="Layer 1"><path d="M1.414,5.605,4.942,7.5V20.846A6.008,6.008,0,1,0,13.649,24H27.007a1,1,0,0,1,1,1v1H17a1,1,0,1,0,0,2H26.19a2.966,2.966,0,0,0-.184,1,3,3,0,1,0,4-2.816V25a2.987,2.987,0,0,0-.882-2.122A4.969,4.969,0,0,0,31.009,19V12a5.007,5.007,0,0,0-5-5H18a5.008,5.008,0,0,0-5,5v7a4.95,4.95,0,0,0,1.026,3H12.457A5.981,5.981,0,0,0,11,20.815V4.725a1,1,0,0,0-.5-.867L4.693.515a3.006,3.006,0,0,0-3.74.3A3.07,3.07,0,0,0,1.414,5.605ZM29.008,30a1,1,0,1,1,1-1A1,1,0,0,1,29.008,30Zm-5-21v3.131l-1.446-.963a1.014,1.014,0,0,0-1.11,0L20,12.135V9ZM15,19V12a3,3,0,0,1,3-3v5a1,1,0,0,0,1.556.832L22,13.205l2.446,1.63a1.025,1.025,0,0,0,1.027.05A1,1,0,0,0,26.006,14V9a3,3,0,0,1,3,3v7a3,3,0,0,1-3,3H18A3,3,0,0,1,15,19ZM8,30a4,4,0,1,1,4-4A4.005,4.005,0,0,1,8,30ZM2.319,2.279a1.04,1.04,0,0,1,1.317-.067L9,5.3V20.093a5.654,5.654,0,0,0-2.053.008V6.9a1,1,0,0,0-.527-.881L2.447,3.9A1.042,1.042,0,0,1,2.319,2.279Z"/><circle cx="7.995" cy="26.002" r="1"/></g></svg>